<mxfile host="app.diagrams.net" modified="2023-04-27T05:48:03.029Z" agent="Mozilla/5.0 (Macintosh; Intel Mac OS X 10_13_5) AppleWebKit/605.1.15 (KHTML, like Gecko) CriOS/104 Version/11.1.1 Safari/605.1.15" etag="1Eb7KpupE7d_ShAzfHNv" version="21.1.4" type="github">
  <diagram name="第 1 页" id="5VWejiqOqIO2TvDn-AxV">
    <mxGraphModel dx="1573" dy="1680" grid="0" gridSize="10" guides="1" tooltips="1" connect="1" arrows="1" fold="1" page="0" pageScale="1" pageWidth="827" pageHeight="1169" math="0" shadow="0">
      <root>
        <mxCell id="0" />
        <mxCell id="1" parent="0" />
        <mxCell id="J7Ezg-YeItG-Y6J61KZu-1" value="DTR" style="swimlane;childLayout=stackLayout;resizeParent=1;resizeParentMax=0;startSize=20;html=1;" vertex="1" parent="1">
          <mxGeometry x="699" y="-211" width="360" height="124" as="geometry" />
        </mxCell>
        <mxCell id="J7Ezg-YeItG-Y6J61KZu-2" value="第一段" style="swimlane;startSize=20;html=1;" vertex="1" parent="J7Ezg-YeItG-Y6J61KZu-1">
          <mxGeometry y="20" width="120" height="104" as="geometry" />
        </mxCell>
        <mxCell id="J7Ezg-YeItG-Y6J61KZu-3" value="包1" style="text;html=1;align=center;verticalAlign=middle;resizable=0;points=[];autosize=1;strokeColor=none;fillColor=none;" vertex="1" parent="J7Ezg-YeItG-Y6J61KZu-2">
          <mxGeometry x="46" y="50" width="37" height="26" as="geometry" />
        </mxCell>
        <mxCell id="J7Ezg-YeItG-Y6J61KZu-4" value="第二段" style="swimlane;startSize=20;html=1;" vertex="1" parent="J7Ezg-YeItG-Y6J61KZu-1">
          <mxGeometry x="120" y="20" width="120" height="104" as="geometry" />
        </mxCell>
        <mxCell id="J7Ezg-YeItG-Y6J61KZu-5" value="包2" style="text;html=1;align=center;verticalAlign=middle;resizable=0;points=[];autosize=1;strokeColor=none;fillColor=none;" vertex="1" parent="J7Ezg-YeItG-Y6J61KZu-4">
          <mxGeometry x="41.5" y="50" width="37" height="26" as="geometry" />
        </mxCell>
        <mxCell id="J7Ezg-YeItG-Y6J61KZu-6" value="第三段" style="swimlane;startSize=20;html=1;" vertex="1" parent="J7Ezg-YeItG-Y6J61KZu-1">
          <mxGeometry x="240" y="20" width="120" height="104" as="geometry" />
        </mxCell>
        <mxCell id="J7Ezg-YeItG-Y6J61KZu-7" value="包3" style="text;html=1;align=center;verticalAlign=middle;resizable=0;points=[];autosize=1;strokeColor=none;fillColor=none;" vertex="1" parent="J7Ezg-YeItG-Y6J61KZu-6">
          <mxGeometry x="45" y="50" width="37" height="26" as="geometry" />
        </mxCell>
        <mxCell id="J7Ezg-YeItG-Y6J61KZu-8" value="" style="rounded=0;whiteSpace=wrap;html=1;" vertex="1" parent="1">
          <mxGeometry x="199" y="247" width="892" height="240" as="geometry" />
        </mxCell>
        <mxCell id="J7Ezg-YeItG-Y6J61KZu-9" value="" style="endArrow=none;dashed=1;html=1;dashPattern=1 3;strokeWidth=2;rounded=0;entryX=0.096;entryY=0;entryDx=0;entryDy=0;entryPerimeter=0;" edge="1" target="J7Ezg-YeItG-Y6J61KZu-8" parent="1">
          <mxGeometry width="50" height="50" relative="1" as="geometry">
            <mxPoint x="285" y="481" as="sourcePoint" />
            <mxPoint x="183" y="525" as="targetPoint" />
            <Array as="points">
              <mxPoint x="285" y="378" />
            </Array>
          </mxGeometry>
        </mxCell>
        <mxCell id="J7Ezg-YeItG-Y6J61KZu-10" value="" style="endArrow=none;dashed=1;html=1;dashPattern=1 3;strokeWidth=2;rounded=0;entryX=0.25;entryY=0;entryDx=0;entryDy=0;exitX=0.25;exitY=1;exitDx=0;exitDy=0;" edge="1" source="J7Ezg-YeItG-Y6J61KZu-8" target="J7Ezg-YeItG-Y6J61KZu-8" parent="1">
          <mxGeometry width="50" height="50" relative="1" as="geometry">
            <mxPoint x="580" y="434" as="sourcePoint" />
            <mxPoint x="630" y="384" as="targetPoint" />
          </mxGeometry>
        </mxCell>
        <mxCell id="J7Ezg-YeItG-Y6J61KZu-11" value="" style="endArrow=classic;html=1;rounded=0;" edge="1" parent="1">
          <mxGeometry width="50" height="50" relative="1" as="geometry">
            <mxPoint x="238" y="170" as="sourcePoint" />
            <mxPoint x="556" y="170" as="targetPoint" />
          </mxGeometry>
        </mxCell>
        <mxCell id="J7Ezg-YeItG-Y6J61KZu-12" value="RTR" style="text;html=1;strokeColor=none;fillColor=none;align=center;verticalAlign=middle;whiteSpace=wrap;rounded=0;fontSize=20;" vertex="1" parent="1">
          <mxGeometry x="374" y="122" width="60" height="44" as="geometry" />
        </mxCell>
        <mxCell id="J7Ezg-YeItG-Y6J61KZu-13" value="" style="endArrow=classic;html=1;rounded=0;" edge="1" parent="1">
          <mxGeometry width="50" height="50" relative="1" as="geometry">
            <mxPoint x="1078" y="167" as="sourcePoint" />
            <mxPoint x="681" y="167" as="targetPoint" />
          </mxGeometry>
        </mxCell>
        <mxCell id="J7Ezg-YeItG-Y6J61KZu-14" value="DTR" style="text;html=1;strokeColor=none;fillColor=none;align=center;verticalAlign=middle;whiteSpace=wrap;rounded=0;fontSize=20;" vertex="1" parent="1">
          <mxGeometry x="865" y="119" width="60" height="45" as="geometry" />
        </mxCell>
        <mxCell id="J7Ezg-YeItG-Y6J61KZu-15" value="" style="shape=curlyBracket;whiteSpace=wrap;html=1;rounded=1;labelPosition=left;verticalLabelPosition=middle;align=right;verticalAlign=middle;rotation=90;" vertex="1" parent="1">
          <mxGeometry x="301" y="112" width="20" height="224" as="geometry" />
        </mxCell>
        <mxCell id="J7Ezg-YeItG-Y6J61KZu-16" value="" style="shape=curlyBracket;whiteSpace=wrap;html=1;rounded=1;labelPosition=left;verticalLabelPosition=middle;align=right;verticalAlign=middle;rotation=0;direction=south;" vertex="1" parent="1">
          <mxGeometry x="866" y="214" width="227" height="20" as="geometry" />
        </mxCell>
        <mxCell id="J7Ezg-YeItG-Y6J61KZu-17" value="" style="endArrow=none;dashed=1;html=1;dashPattern=1 3;strokeWidth=2;rounded=0;entryX=0.836;entryY=0;entryDx=0;entryDy=0;exitX=0.836;exitY=0.983;exitDx=0;exitDy=0;entryPerimeter=0;exitPerimeter=0;" edge="1" source="J7Ezg-YeItG-Y6J61KZu-8" target="J7Ezg-YeItG-Y6J61KZu-8" parent="1">
          <mxGeometry width="50" height="50" relative="1" as="geometry">
            <mxPoint x="829" y="386" as="sourcePoint" />
            <mxPoint x="879" y="336" as="targetPoint" />
          </mxGeometry>
        </mxCell>
        <mxCell id="J7Ezg-YeItG-Y6J61KZu-18" value="" style="endArrow=none;dashed=1;html=1;dashPattern=1 3;strokeWidth=2;rounded=0;entryX=0.75;entryY=0;entryDx=0;entryDy=0;exitX=0.75;exitY=1;exitDx=0;exitDy=0;" edge="1" source="J7Ezg-YeItG-Y6J61KZu-8" target="J7Ezg-YeItG-Y6J61KZu-8" parent="1">
          <mxGeometry width="50" height="50" relative="1" as="geometry">
            <mxPoint x="748" y="489" as="sourcePoint" />
            <mxPoint x="748" y="327" as="targetPoint" />
          </mxGeometry>
        </mxCell>
        <mxCell id="J7Ezg-YeItG-Y6J61KZu-19" value="" style="edgeStyle=orthogonalEdgeStyle;orthogonalLoop=1;jettySize=auto;html=1;rounded=0;entryX=0.914;entryY=0;entryDx=0;entryDy=0;entryPerimeter=0;" edge="1" target="J7Ezg-YeItG-Y6J61KZu-8" parent="1">
          <mxGeometry width="100" relative="1" as="geometry">
            <mxPoint x="758" y="-86" as="sourcePoint" />
            <mxPoint x="840" y="-120" as="targetPoint" />
          </mxGeometry>
        </mxCell>
        <mxCell id="J7Ezg-YeItG-Y6J61KZu-20" value="" style="edgeStyle=none;orthogonalLoop=1;jettySize=auto;html=1;rounded=0;entryX=0.794;entryY=0.008;entryDx=0;entryDy=0;entryPerimeter=0;" edge="1" target="J7Ezg-YeItG-Y6J61KZu-8" parent="1">
          <mxGeometry width="100" relative="1" as="geometry">
            <mxPoint x="907" y="-84" as="sourcePoint" />
            <mxPoint x="931" y="-108" as="targetPoint" />
            <Array as="points" />
          </mxGeometry>
        </mxCell>
        <mxCell id="J7Ezg-YeItG-Y6J61KZu-21" value="RTR" style="swimlane;childLayout=stackLayout;resizeParent=1;resizeParentMax=0;startSize=20;html=1;" vertex="1" parent="1">
          <mxGeometry x="185" y="-206" width="360" height="124" as="geometry" />
        </mxCell>
        <mxCell id="J7Ezg-YeItG-Y6J61KZu-22" value="第一段" style="swimlane;startSize=20;html=1;" vertex="1" parent="J7Ezg-YeItG-Y6J61KZu-21">
          <mxGeometry y="20" width="120" height="104" as="geometry" />
        </mxCell>
        <mxCell id="J7Ezg-YeItG-Y6J61KZu-23" value="&lt;p style=&quot;line-height: 120%;&quot;&gt;应用1&lt;/p&gt;" style="text;html=1;align=center;verticalAlign=middle;resizable=0;points=[];autosize=1;strokeColor=none;fillColor=none;" vertex="1" parent="J7Ezg-YeItG-Y6J61KZu-22">
          <mxGeometry x="40" y="38" width="49" height="50" as="geometry" />
        </mxCell>
        <mxCell id="J7Ezg-YeItG-Y6J61KZu-24" value="第二段" style="swimlane;startSize=20;html=1;" vertex="1" parent="J7Ezg-YeItG-Y6J61KZu-21">
          <mxGeometry x="120" y="20" width="120" height="104" as="geometry" />
        </mxCell>
        <mxCell id="J7Ezg-YeItG-Y6J61KZu-25" value="应用2" style="text;html=1;align=center;verticalAlign=middle;resizable=0;points=[];autosize=1;strokeColor=none;fillColor=none;" vertex="1" parent="J7Ezg-YeItG-Y6J61KZu-24">
          <mxGeometry x="35.5" y="50" width="49" height="26" as="geometry" />
        </mxCell>
        <mxCell id="J7Ezg-YeItG-Y6J61KZu-26" value="第三段" style="swimlane;startSize=20;html=1;" vertex="1" parent="J7Ezg-YeItG-Y6J61KZu-21">
          <mxGeometry x="240" y="20" width="120" height="104" as="geometry" />
        </mxCell>
        <mxCell id="J7Ezg-YeItG-Y6J61KZu-27" value="应用3" style="text;html=1;align=center;verticalAlign=middle;resizable=0;points=[];autosize=1;strokeColor=none;fillColor=none;" vertex="1" parent="J7Ezg-YeItG-Y6J61KZu-26">
          <mxGeometry x="39" y="50" width="49" height="26" as="geometry" />
        </mxCell>
        <mxCell id="J7Ezg-YeItG-Y6J61KZu-28" style="edgeStyle=orthogonalEdgeStyle;rounded=0;orthogonalLoop=1;jettySize=auto;html=1;exitX=0.5;exitY=1;exitDx=0;exitDy=0;entryX=0.052;entryY=0.004;entryDx=0;entryDy=0;entryPerimeter=0;" edge="1" source="J7Ezg-YeItG-Y6J61KZu-22" target="J7Ezg-YeItG-Y6J61KZu-8" parent="1">
          <mxGeometry relative="1" as="geometry">
            <mxPoint x="417.5454545454545" y="42.99999999999977" as="targetPoint" />
          </mxGeometry>
        </mxCell>
        <mxCell id="J7Ezg-YeItG-Y6J61KZu-29" style="edgeStyle=orthogonalEdgeStyle;rounded=0;orthogonalLoop=1;jettySize=auto;html=1;entryX=0.186;entryY=0.006;entryDx=0;entryDy=0;entryPerimeter=0;" edge="1" source="J7Ezg-YeItG-Y6J61KZu-24" target="J7Ezg-YeItG-Y6J61KZu-8" parent="1">
          <mxGeometry relative="1" as="geometry" />
        </mxCell>
      </root>
    </mxGraphModel>
  </diagram>
</mxfile>
